# xmcd
#
# Track frame offsets:
#	150
#	6992
#	20805
#	38874
#	56587
#	82537
#	99945
#	115801
#	135437
#	151196
#	167401
#
# Disc length: 2450 seconds
# Revision: 3
# Processed by: cddbd v1.5.2PL0 Copyright (c) Steve Scherf et al.
# Submitted via: dBpowerAMP V12.0
#
DISCID=7409900b
DTITLE=Charles Bradley - Changes
DYEAR=2016
DGENRE=R&B
TTITLE0=God Bless America
TTITLE1=Good To Be Back Home
TTITLE2=Nobody But You
TTITLE3=Ain't Gonna Give It Up
TTITLE4=Changes
TTITLE5=Ain't It a Sin
TTITLE6=Things We Do For Love
TTITLE7=Crazy For Your Love
TTITLE8=You Think I Don't Know (But I Know)
TTITLE9=Change For The World
TTITLE10=Slow Love
EXTD=
EXTT0=
EXTT1=
EXTT2=
EXTT3=
EXTT4=
EXTT5=
EXTT6=
EXTT7=
EXTT8=
EXTT9=
EXTT10=
PLAYORDER=
